HIERARCHY
ROOT root
{
	OFFSET	0	13.1	24.9
	CHANNELS 6  Xposition Yposition Zposition Xrotation Yrotation Zrotation
	JOINT spine_1
	{
		OFFSET	0	9.99999	0
		CHANNELS 3  Xrotation Yrotation Zrotation
		JOINT spine_2
		{
			OFFSET	0	112	-10
			CHANNELS 3  Xrotation Yrotation Zrotation
			JOINT spine_3
			{
				OFFSET	0	206.5	19.3
				CHANNELS 3  Xrotation Yrotation Zrotation
				JOINT spine_4
				{
					OFFSET	0	110.4	14.6
					CHANNELS 3  Xrotation Yrotation Zrotation
					JOINT neck_1
					{
						OFFSET	0	71.8	-50.3
						CHANNELS 3  Xrotation Yrotation Zrotation
						JOINT neck_2
						{
							OFFSET	0	86.2	-25.8
							CHANNELS 3  Xrotation Yrotation Zrotation
							JOINT head_ee
							{
								OFFSET	0	179.8	-8.7
								CHANNELS 3  Xrotation Yrotation Zrotation
								End Site
								{
									OFFSET	1	0	0
								}
							}
						}
					}
					JOINT left_clavicle
					{
						OFFSET	-43.2	22.4	-70.8
						CHANNELS 3  Xrotation Yrotation Zrotation
						JOINT left_shoulder
						{
							OFFSET	-93.9	-5.79999	48.7
							CHANNELS 3  Xrotation Yrotation Zrotation
							JOINT left_elbow
							{
								OFFSET	-291.4	-30.8	15.2
								CHANNELS 3  Xrotation Yrotation Zrotation
								JOINT left_lowarm_twist
								{
									OFFSET	-110.7	-3.89999	13.6
									CHANNELS 3  Xrotation Yrotation Zrotation
									JOINT left_hand
									{
										OFFSET	-110.7	-3.89999	13.6
										CHANNELS 3  Xrotation Yrotation Zrotation
										JOINT left_ee
										{
											OFFSET	-80.8	-5.10001	12.1
											CHANNELS 3  Xrotation Yrotation Zrotation
											End Site
											{
												OFFSET	1	0	0
											}
										}
									}
								}
							}
						}
					}
					JOINT right_clavicle
					{
						OFFSET	43.2	22.4	-70.8
						CHANNELS 3  Xrotation Yrotation Zrotation
						JOINT right_shoulder
						{
							OFFSET	93.9	-5.79999	48.7
							CHANNELS 3  Xrotation Yrotation Zrotation
							JOINT right_elbow
							{
								OFFSET	291.4	-30.8	15.2
								CHANNELS 3  Xrotation Yrotation Zrotation
								JOINT right_lowarm_twist
								{
									OFFSET	110.7	-3.89999	13.6
									CHANNELS 3  Xrotation Yrotation Zrotation
									JOINT right_hand
									{
										OFFSET	110.7	-3.89999	13.6
										CHANNELS 3  Xrotation Yrotation Zrotation
										JOINT right_ee
										{
											OFFSET	80.8	-5.10001	12.1
											CHANNELS 3  Xrotation Yrotation Zrotation
											End Site
											{
												OFFSET	1	0	0
											}
										}
									}
								}
							}
						}
					}
				}
			}
		}
	}
	JOINT left_hip
	{
		OFFSET	-82.8	-127.5	0.300001
		CHANNELS 3  Xrotation Yrotation Zrotation
		JOINT left_knee
		{
			OFFSET	-28.2	-396.7	2.2
			CHANNELS 3  Xrotation Yrotation Zrotation
			JOINT left_ankle
			{
				OFFSET	-11.7	-411.3	35.4
				CHANNELS 3  Xrotation Yrotation Zrotation
				JOINT left_toes
				{
					OFFSET	0	-60	-88.6
					CHANNELS 3  Xrotation Yrotation Zrotation
					JOINT left_foot_ee
					{
						OFFSET	-22.5	-16.5	-42.2
						CHANNELS 3  Xrotation Yrotation Zrotation
						End Site
						{
							OFFSET	1	0	0
						}
					}
				}
			}
		}
	}
	JOINT right_hip
	{
		OFFSET	82.8	-127.5	0.300001
		CHANNELS 3  Xrotation Yrotation Zrotation
		JOINT right_knee
		{
			OFFSET	28.2	-396.7	2.2
			CHANNELS 3  Xrotation Yrotation Zrotation
			JOINT right_ankle
			{
				OFFSET	11.7	-411.3	35.4
				CHANNELS 3  Xrotation Yrotation Zrotation
				JOINT right_toes
				{
					OFFSET	0	-60	-88.6
					CHANNELS 3  Xrotation Yrotation Zrotation
					JOINT right_foot_ee
					{
						OFFSET	22.5	-16.5	-42.2
						CHANNELS 3  Xrotation Yrotation Zrotation
						End Site
						{
							OFFSET	1	0	0
						}
					}
				}
			}
		}
	}
}
MOTION
Frames: 15
Frame Time: 0.02
2554.61738679 744.137 -1618.32037399 1.61423174305 39.6035447696 -1.06842350874 1.08434 0.0281457 0.370839 1.08441 0.00449139 0.371878 1.08445 -0.0668577 0.365846 1.08427 -0.0082404 0.371814 -14.7756 18.5249 7.26978 -15.5212 31.1669 13.2277 -0.0 0.0 -0.0 7.56537 21.1901 13.5051 -29.899 -12.2349 49.5099 1.30123 -32.804 0.383037 -28.8018 -1.84639 3.14608 -0.0929257 -0.842107 -0.977157 -0.0 0.0 -0.0 13.1238 24.9941 -26.0785 -16.9136 16.9666 -63.5194 1.00627 26.4946 -0.2369 46.2086 0.710944 5.70223 -0.172127 -13.4381 -4.4401 0.0 0.0 0.0 8.53943 39.0381 -10.3301 -18.0046 0.314051 2.73377 22.708 8.37885 -3.06173 -20.7187 0.0 0.0 -0.0 0.0 -0.0 1.13727 7.50002 -3.97552 3.81081 0.175583 0.558239 13.6653 23.9447 2.24871 -18.0066 0.0 0.0 0.0 0.0 0.0 
2548.41916204 744.726 -1613.89148798 1.71998628594 40.2511004362 -0.935908438868 1.02184 0.105658 0.296796 1.02189 0.0865583 0.302917 1.02236 0.026565 0.31392 1.02223 0.0758091 0.305785 -13.9842 18.369 7.1361 -14.6214 30.7857 12.7931 -0.0 0.0 -0.0 7.74592 21.3845 13.7569 -29.592 -12.057 50.3585 1.23318 -31.4188 0.346863 -28.1791 -1.79046 3.08911 -0.0249042 -2.39715 -1.18045 -0.0 0.0 -0.0 13.1215 25.2852 -26.0407 -16.5732 17.1759 -63.3162 0.970526 25.6764 -0.221184 45.6457 0.675011 5.6398 0.096491 -11.6198 -5.41078 0.0 0.0 0.0 7.21676 38.7725 -9.24218 -12.252 0.30749 1.85154 20.7614 4.69512 -2.82702 -20.5156 0.0 0.0 -0.0 0.0 -0.0 1.67849 7.30398 -4.12058 2.89509 0.130001 0.425159 13.6319 23.224 2.22657 -17.7508 0.0 0.0 0.0 0.0 0.0 
2537.46340669 742.597 -1604.55706732 1.81502807893 42.2424555315 -1.31500869496 1.04384 0.0875588 0.395581 1.04393 0.0622097 0.40035 1.04438 -0.0159474 0.404841 1.04416 0.0481893 0.402279 -13.0645 18.2703 5.98093 -13.6649 31.1156 11.4168 -0.0 0.0 -0.0 7.23756 22.6671 12.8672 -28.7302 -13.2465 51.1984 1.12666 -29.1657 0.293122 -29.0728 -1.87093 3.17067 0.037186 -1.85312 -0.533396 -0.0 0.0 -0.0 13.0804 25.1388 -25.9618 -15.3742 17.2572 -63.7958 0.954065 25.2957 -0.2141 45.9196 0.692421 5.67023 0.293186 -10.729 -6.31618 0.0 0.0 0.0 7.68249 39.2431 -9.29812 -11.2244 0.296996 1.69421 19.0113 2.94829 -2.61458 -19.9982 0.0 0.0 -0.0 0.0 -0.0 1.42664 6.93712 -3.58282 3.31032 0.150405 0.485592 15.768 22.8834 2.54025 -18.0712 0.0 0.0 0.0 0.0 0.0 
2521.84530736 743.953 -1589.21961255 1.64826445651 45.9449502577 -1.03481629819 1.06313 0.096126 0.368984 1.06321 0.0724519 0.374353 1.0637 -0.000767599 0.381299 1.06351 0.0594606 0.376635 -13.421 16.9713 6.07725 -13.9308 28.635 11.1488 -0.0 0.0 -0.0 6.29437 21.3916 11.5872 -26.5123 -15.3067 54.9646 0.925042 -24.6187 0.201854 -28.8848 -1.8539 3.15362 -0.0702361 -1.27987 -1.01078 -0.0 0.0 -0.0 13.0691 25.2127 -25.9274 -14.5318 15.6793 -63.7423 0.930234 24.7404 -0.204022 46.1506 0.707216 5.69582 0.546476 -11.0668 -8.07557 0.0 0.0 0.0 4.35002 39.6083 -6.41817 -1.51903 0.0595588 0.225502 15.9187 0.568056 -2.22858 -21.649 0.0 0.0 -0.0 0.0 -0.0 1.63857 7.10666 -2.68525 2.64124 0.117743 0.388143 17.4791 21.9824 2.76673 -17.3361 0.0 0.0 0.0 0.0 0.0 
2518.86359515 743.953 -1581.73000337 1.69563218659 47.4735924063 -1.09988646195 1.06313 0.096126 0.368984 1.06321 0.0724519 0.374353 1.0637 -0.000767599 0.381299 1.06351 0.0594606 0.376635 -13.421 16.9713 6.07725 -13.9308 28.635 11.1488 -0.0 0.0 -0.0 6.29437 21.3916 11.5872 -26.5123 -15.3067 54.9646 0.925042 -24.6187 0.201854 -28.8848 -1.8539 3.15362 -0.0702361 -1.27987 -1.01078 -0.0 0.0 -0.0 13.0691 25.2127 -25.9274 -14.5318 15.6793 -63.7423 0.930234 24.7404 -0.204022 46.1506 0.707216 5.69582 0.546476 -11.0668 -8.07557 0.0 0.0 0.0 4.35002 39.6083 -6.41817 -1.51903 0.0595588 0.225502 15.9187 0.568056 -2.22858 -21.649 0.0 0.0 -0.0 0.0 -0.0 1.63857 7.10666 -2.68525 2.64124 0.117743 0.388143 17.4791 21.9824 2.76673 -17.3361 0.0 0.0 0.0 0.0 0.0 
2509.72310475 747.135 -1575.26558375 2.19259936764 47.8401357721 -1.90078293192 1.00564 0.0902777 0.562651 1.00581 0.0542924 0.567255 1.0064 -0.0561934 0.567069 1.00595 0.0340684 0.568828 -14.6688 16.536 6.4573 -15.2362 27.8011 11.688 -0.0 0.0 -0.0 5.84086 21.4561 10.9137 -25.8438 -15.9361 56.3999 0.837559 -22.5335 0.166858 -28.5808 -1.82647 3.12593 -0.161067 -0.773634 -1.40413 -0.0 0.0 -0.0 12.7213 23.7865 -25.2737 -14.6532 16.8787 -64.1454 0.972991 25.7332 -0.222253 47.7546 0.81279 5.87189 0.640691 -13.6506 -9.65669 0.0 0.0 0.0 3.18531 39.5073 -5.5967 -4.15068 0.148504 0.619555 15.7534 -2.56224 -2.22499 -22.5579 0.0 0.0 -0.0 0.0 -0.0 2.23009 6.90923 -1.55717 -1.42152 -0.0559159 -0.210981 18.7242 20.8301 2.91255 -17.4594 0.0 0.0 0.0 0.0 0.0 
2509.01932675 747.135 -1573.22327612 2.20974325988 48.2411690645 -1.92383745037 1.00564 0.0902777 0.562651 1.00581 0.0542924 0.567255 1.0064 -0.0561934 0.567069 1.00595 0.0340684 0.568828 -14.6688 16.536 6.4573 -15.2362 27.8011 11.688 -0.0 0.0 -0.0 5.84086 21.4561 10.9137 -25.8438 -15.9361 56.3999 0.837559 -22.5335 0.166858 -28.5808 -1.82647 3.12593 -0.161067 -0.773634 -1.40413 -0.0 0.0 -0.0 12.7213 23.7865 -25.2737 -14.6532 16.8787 -64.1454 0.972991 25.7332 -0.222253 47.7546 0.81279 5.87189 0.640691 -13.6506 -9.65669 0.0 0.0 0.0 3.18531 39.5073 -5.5967 -4.15068 0.148504 0.619555 15.7534 -2.56224 -2.22499 -22.5579 0.0 0.0 -0.0 0.0 -0.0 2.23009 6.90923 -1.55717 -1.42152 -0.0559159 -0.210981 18.7242 20.8301 2.91255 -17.4594 0.0 0.0 0.0 0.0 0.0 
2508.27692346 747.135 -1571.01688801 2.22864451343 48.6733443233 -1.94909075573 1.00564 0.0902777 0.562651 1.00581 0.0542924 0.567255 1.0064 -0.0561934 0.567069 1.00595 0.0340684 0.568828 -14.6688 16.536 6.4573 -15.2362 27.8011 11.688 -0.0 0.0 -0.0 5.84086 21.4561 10.9137 -25.8438 -15.9361 56.3999 0.837559 -22.5335 0.166858 -28.5808 -1.82647 3.12593 -0.161067 -0.773634 -1.40413 -0.0 0.0 -0.0 12.7213 23.7865 -25.2737 -14.6532 16.8787 -64.1454 0.972991 25.7332 -0.222253 47.7546 0.81279 5.87189 0.640691 -13.6506 -9.65669 0.0 0.0 0.0 3.18531 39.5073 -5.5967 -4.15068 0.148504 0.619555 15.7534 -2.56224 -2.22499 -22.5579 0.0 0.0 -0.0 0.0 -0.0 2.23009 6.90923 -1.55717 -1.42152 -0.0559159 -0.210981 18.7242 20.8301 2.91255 -17.4594 0.0 0.0 0.0 0.0 0.0 
2507.82493753 747.135 -1569.64592895 2.24059274226 48.9413307366 -1.96496877289 1.00564 0.0902777 0.562651 1.00581 0.0542924 0.567255 1.0064 -0.0561934 0.567069 1.00595 0.0340684 0.568828 -14.6688 16.536 6.4573 -15.2362 27.8011 11.688 -0.0 0.0 -0.0 5.84086 21.4561 10.9137 -25.8438 -15.9361 56.3999 0.837559 -22.5335 0.166858 -28.5808 -1.82647 3.12593 -0.161067 -0.773634 -1.40413 -0.0 0.0 -0.0 12.7213 23.7865 -25.2737 -14.6532 16.8787 -64.1454 0.972991 25.7332 -0.222253 47.7546 0.81279 5.87189 0.640691 -13.6506 -9.65669 0.0 0.0 0.0 3.18531 39.5073 -5.5967 -4.15068 0.148504 0.619555 15.7534 -2.56224 -2.22499 -22.5579 0.0 0.0 -0.0 0.0 -0.0 2.23009 6.90923 -1.55717 -1.42152 -0.0559159 -0.210981 18.7242 20.8301 2.91255 -17.4594 0.0 0.0 0.0 0.0 0.0 
2508.47721464 747.135 -1571.61759977 2.22345872673 48.5557892293 -1.94217894992 1.00564 0.0902777 0.562651 1.00581 0.0542924 0.567255 1.0064 -0.0561934 0.567069 1.00595 0.0340684 0.568828 -14.6688 16.536 6.4573 -15.2362 27.8011 11.688 -0.0 0.0 -0.0 5.84086 21.4561 10.9137 -25.8438 -15.9361 56.3999 0.837559 -22.5335 0.166858 -28.5808 -1.82647 3.12593 -0.161067 -0.773634 -1.40413 -0.0 0.0 -0.0 12.7213 23.7865 -25.2737 -14.6532 16.8787 -64.1454 0.972991 25.7332 -0.222253 47.7546 0.81279 5.87189 0.640691 -13.6506 -9.65669 0.0 0.0 0.0 3.18531 39.5073 -5.5967 -4.15068 0.148504 0.619555 15.7534 -2.56224 -2.22499 -22.5579 0.0 0.0 -0.0 0.0 -0.0 2.23009 6.90923 -1.55717 -1.42152 -0.0559159 -0.210981 18.7242 20.8301 2.91255 -17.4594 0.0 0.0 0.0 0.0 0.0 
2508.43399832 747.135 -1571.48833288 2.22457212461 48.5810926924 -1.94366398194 1.00564 0.0902777 0.562651 1.00581 0.0542924 0.567255 1.0064 -0.0561934 0.567069 1.00595 0.0340684 0.568828 -14.6688 16.536 6.4573 -15.2362 27.8011 11.688 -0.0 0.0 -0.0 5.84086 21.4561 10.9137 -25.8438 -15.9361 56.3999 0.837559 -22.5335 0.166858 -28.5808 -1.82647 3.12593 -0.161067 -0.773634 -1.40413 -0.0 0.0 -0.0 12.7213 23.7865 -25.2737 -14.6532 16.8787 -64.1454 0.972991 25.7332 -0.222253 47.7546 0.81279 5.87189 0.640691 -13.6506 -9.65669 0.0 0.0 0.0 3.18531 39.5073 -5.5967 -4.15068 0.148504 0.619555 15.7534 -2.56224 -2.22499 -22.5579 0.0 0.0 -0.0 0.0 -0.0 2.23009 6.90923 -1.55717 -1.42152 -0.0559159 -0.210981 18.7242 20.8301 2.91255 -17.4594 0.0 0.0 0.0 0.0 0.0 
2507.24059671 747.135 -1567.84068675 2.25656981952 49.2935810584 -1.98610089407 1.00564 0.0902777 0.562651 1.00581 0.0542924 0.567255 1.0064 -0.0561934 0.567069 1.00595 0.0340684 0.568828 -14.6688 16.536 6.4573 -15.2362 27.8011 11.688 -0.0 0.0 -0.0 5.84086 21.4561 10.9137 -25.8438 -15.9361 56.3999 0.837559 -22.5335 0.166858 -28.5808 -1.82647 3.12593 -0.161067 -0.773634 -1.40413 -0.0 0.0 -0.0 12.7213 23.7865 -25.2737 -14.6532 16.8787 -64.1454 0.972991 25.7332 -0.222253 47.7546 0.81279 5.87189 0.640691 -13.6506 -9.65669 0.0 0.0 0.0 3.18531 39.5073 -5.5967 -4.15068 0.148504 0.619555 15.7534 -2.56224 -2.22499 -22.5579 0.0 0.0 -0.0 0.0 -0.0 2.23009 6.90923 -1.55717 -1.42152 -0.0559159 -0.210981 18.7242 20.8301 2.91255 -17.4594 0.0 0.0 0.0 0.0 0.0 
2506.27850181 747.135 -1564.78227986 2.28428876474 49.888775857 -2.02250379534 1.00564 0.0902777 0.562651 1.00581 0.0542924 0.567255 1.0064 -0.0561934 0.567069 1.00595 0.0340684 0.568828 -14.6688 16.536 6.4573 -15.2362 27.8011 11.688 -0.0 0.0 -0.0 5.84086 21.4561 10.9137 -25.8438 -15.9361 56.3999 0.837559 -22.5335 0.166858 -28.5808 -1.82647 3.12593 -0.161067 -0.773634 -1.40413 -0.0 0.0 -0.0 12.7213 23.7865 -25.2737 -14.6532 16.8787 -64.1454 0.972991 25.7332 -0.222253 47.7546 0.81279 5.87189 0.640691 -13.6506 -9.65669 0.0 0.0 0.0 3.18531 39.5073 -5.5967 -4.15068 0.148504 0.619555 15.7534 -2.56224 -2.22499 -22.5579 0.0 0.0 -0.0 0.0 -0.0 2.23009 6.90923 -1.55717 -1.42152 -0.0559159 -0.210981 18.7242 20.8301 2.91255 -17.4594 0.0 0.0 0.0 0.0 0.0 
2505.15036008 747.135 -1561.046128 2.31930540275 50.6132733048 -2.06804686437 1.00564 0.0902777 0.562651 1.00581 0.0542924 0.567255 1.0064 -0.0561934 0.567069 1.00595 0.0340684 0.568828 -14.6688 16.536 6.4573 -15.2362 27.8011 11.688 -0.0 0.0 -0.0 5.84086 21.4561 10.9137 -25.8438 -15.9361 56.3999 0.837559 -22.5335 0.166858 -28.5808 -1.82647 3.12593 -0.161067 -0.773634 -1.40413 -0.0 0.0 -0.0 12.7213 23.7865 -25.2737 -14.6532 16.8787 -64.1454 0.972991 25.7332 -0.222253 47.7546 0.81279 5.87189 0.640691 -13.6506 -9.65669 0.0 0.0 0.0 3.18531 39.5073 -5.5967 -4.15068 0.148504 0.619555 15.7534 -2.56224 -2.22499 -22.5579 0.0 0.0 -0.0 0.0 -0.0 2.23009 6.90923 -1.55717 -1.42152 -0.0559159 -0.210981 18.7242 20.8301 2.91255 -17.4594 0.0 0.0 0.0 0.0 0.0 
2485.21927863 750.366 -1533.35512062 2.73464110665 53.3429785212 -2.14203422856 0.675962 0.0968323 0.467338 0.676081 0.0668984 0.472553 0.67668 -0.0282904 0.476425 0.676366 0.0473062 0.474914 -13.5163 16.5029 5.51386 -14.0302 28.0994 10.4919 -0.0 0.0 -0.0 6.04086 20.9945 11.2361 -26.2721 -16.7487 59.6362 0.794441 -21.4817 0.1507 -29.192 -1.88177 3.18147 -0.181863 0.145159 -1.15285 -0.0 0.0 -0.0 12.3562 22.4122 -24.5606 -13.7356 14.4311 -64.6175 0.953307 25.2782 -0.213777 47.4501 0.792367 5.83869 1.14262 -13.1056 -12.6741 0.0 0.0 0.0 2.27547 40.401 -4.50615 -5.62811 0.19047 0.842403 17.2025 -6.81595 -2.45254 -21.861 0.0 0.0 -0.0 0.0 -0.0 3.28081 6.76384 0.0792641 -5.22858 -0.179689 -0.782036 20.2606 21.3669 3.14127 -16.0894 0.0 0.0 0.0 0.0 0.0 
